<svg xmlns="http://www.w3.org/2000/svg" width="280" height="100" viewBox="0 0 280 100" fill="none">
<path d="M145.262 32.5967H164.21V34.9616C164.21 37.6269 163.76 40.1139 162.859 42.4225C161.976 44.7312 160.71 46.7583 159.058 48.5039C157.406 50.2494 155.435 51.6102 153.145 52.5863C150.855 53.5623 148.322 54.0503 145.544 54.0503C142.672 54.0503 140.063 53.5623 137.717 52.5863C135.389 51.5915 133.381 50.2119 131.692 48.4476C130.003 46.6832 128.707 44.6373 127.806 42.3099C126.906 39.9637 126.455 37.4486 126.455 34.7646C126.455 32.0993 126.906 29.6029 127.806 27.2755C128.707 24.9293 130.003 22.8834 131.692 21.1379C133.381 19.3735 135.389 18.0034 137.717 17.0273C140.063 16.0326 142.672 15.5352 145.544 15.5352C147.89 15.5352 149.955 15.7885 151.738 16.2953C153.54 16.8021 155.088 17.4778 156.383 18.3224C157.678 19.1671 158.776 20.0962 159.677 21.1097C160.578 22.1045 161.329 23.0805 161.93 24.0378L153.934 27.8104C153.164 26.628 152.113 25.5956 150.78 24.7135C149.467 23.8313 147.721 23.3902 145.544 23.3902C144.023 23.3902 142.625 23.6905 141.349 24.2912C140.091 24.8918 139.003 25.7176 138.083 26.7687C137.163 27.8011 136.45 29.0117 135.943 30.4006C135.455 31.7708 135.211 33.2255 135.211 34.7646C135.211 36.3224 135.455 37.7865 135.943 39.1566C136.45 40.5268 137.163 41.7374 138.083 42.7885C139.003 43.8396 140.091 44.6655 141.349 45.2661C142.625 45.848 144.023 46.1389 145.544 46.1389C146.876 46.1389 148.087 45.97 149.176 45.6321C150.264 45.2943 151.203 44.8063 151.991 44.1681C152.798 43.5299 153.427 42.7792 153.877 41.9158C154.347 41.0336 154.628 40.067 154.722 39.0159H145.262V32.5967Z" fill="#0B0D50"/>
<path d="M184.219 34.1733L198.353 53.3746H188.302L176.871 37.1295V53.3746H168.453V16.2109H176.871V31.4142L187.401 16.2109H196.889L184.219 34.1733Z" fill="#0B0D50"/>
<path d="M202.853 15.873H216.367C218.751 15.873 220.9 16.2954 222.814 17.14C224.729 17.9659 226.249 19.2328 227.375 20.9408C228.52 22.6301 229.093 24.751 229.093 27.3037C229.093 29.8376 228.52 31.9961 227.375 33.7792C226.249 35.5435 224.729 36.8949 222.814 37.8334C220.9 38.7531 218.751 39.213 216.367 39.213H211.271V53.0368H202.853V15.873ZM211.271 32.5686H214.03C215.175 32.5686 216.198 32.3996 217.099 32.0618C218.019 31.7239 218.751 31.189 219.295 30.457C219.839 29.7062 220.112 28.7208 220.112 27.5008C220.112 26.262 219.839 25.286 219.295 24.5727C218.751 23.8407 218.019 23.3152 217.099 22.9961C216.198 22.677 215.175 22.5175 214.03 22.5175H211.271V32.5686Z" fill="#0B0D50"/>
<path d="M240.676 53.0368H232.117V29.9221H240.676V33.4977H240.535C240.685 33.066 241.051 32.5216 241.633 31.8647C242.215 31.189 243.031 30.5884 244.082 30.0628C245.133 29.5185 246.419 29.2464 247.94 29.2464C249.009 29.2464 249.995 29.4153 250.896 29.7531C251.797 30.0722 252.454 30.3819 252.867 30.6822L249.544 37.6363C249.282 37.3173 248.812 36.9888 248.137 36.6509C247.48 36.2943 246.654 36.116 245.659 36.116C244.514 36.116 243.566 36.4069 242.815 36.9888C242.083 37.5706 241.539 38.2745 241.182 39.1004C240.845 39.9262 240.676 40.7052 240.676 41.4372V53.0368Z" fill="#0B0D50"/>
<path d="M266.338 53.7125C263.804 53.7125 261.552 53.1963 259.581 52.164C257.629 51.1129 256.09 49.677 254.964 47.8564C253.856 46.0169 253.302 43.9148 253.302 41.5498C253.302 39.1848 253.856 37.0826 254.964 35.2432C256.09 33.385 257.629 31.921 259.581 30.8511C261.552 29.7813 263.804 29.2464 266.338 29.2464C268.872 29.2464 271.105 29.7813 273.039 30.8511C274.972 31.921 276.483 33.385 277.572 35.2432C278.66 37.0826 279.204 39.1848 279.204 41.5498C279.204 43.9148 278.66 46.0169 277.572 47.8564C276.483 49.677 274.972 51.1129 273.039 52.164C271.105 53.1963 268.872 53.7125 266.338 53.7125ZM266.338 46.6739C267.314 46.6739 268.159 46.458 268.872 46.0263C269.585 45.5946 270.139 44.9846 270.533 44.1963C270.927 43.408 271.124 42.5164 271.124 41.5216C271.124 40.5081 270.927 39.6071 270.533 38.8188C270.139 38.0305 269.585 37.4111 268.872 36.9606C268.159 36.5102 267.314 36.2849 266.338 36.2849C265.362 36.2849 264.508 36.5102 263.776 36.9606C263.063 37.4111 262.5 38.0305 262.087 38.8188C261.692 39.6071 261.495 40.5081 261.495 41.5216C261.495 42.5164 261.692 43.408 262.087 44.1963C262.5 44.9846 263.063 45.5946 263.776 46.0263C264.508 46.458 265.362 46.6739 266.338 46.6739Z" fill="#0B0D50"/>
<g clip-path="url(#clip0_1503_14106)">
<path d="M57.4544 99.7055C69.9525 94.3098 79.3362 82.3282 80.4375 68.5582C81.5636 54.4704 73.358 40.8437 59.6547 36.658C59.3469 36.5638 58.8196 36.7268 58.841 36.2599C60.2489 36.2027 61.5021 35.9566 62.9452 36.0236C69.3606 36.32 75.6362 39.5044 81.5642 41.6625C86.1743 43.3405 92.1438 45.2444 95.2421 40.0354C97.8789 35.6012 96.0835 30.7724 95.5811 26.1354C95.5678 26.0129 95.4777 25.4986 95.7405 25.6292C97.3124 28.2658 98.4587 31.3461 99.3221 34.2959C107.852 63.4347 90.0747 93.4061 60.4793 99.5535C59.9117 99.6714 58.1209 100.131 57.7166 99.966C57.6317 99.9314 57.4105 99.7713 57.4544 99.706V99.7055Z" fill="#0B0D50"/>
<path d="M49.3695 57.7545C51.3792 57.7817 53.4351 58.9743 55.0896 60.0617C58.8837 62.5568 62.5381 66.665 66.3854 68.7521C69.1458 70.2498 71.6146 68.6741 73.4521 66.5379C74.1232 65.7579 74.7319 64.467 75.3585 63.8228C75.4682 63.7095 75.5115 63.6049 75.7026 63.6483C74.435 79.2649 63.3431 93.8716 47.5429 96.778C21.4767 101.573 1.03746 76.0026 0.0459004 51.9232C-0.0320611 50.0291 -0.0672881 46.1878 0.423003 44.4329C0.449568 44.337 0.520022 44.2347 0.626858 44.2336C0.961226 51.2853 3.76669 58.6091 7.30729 64.6502C13.9733 76.0239 27.3521 84.7334 40.6494 85.4886C54.8679 86.2958 61.6852 74.9729 53.9208 62.8491C52.4961 60.6245 51.4734 59.8445 49.6104 58.148C49.4822 58.0313 49.3205 57.9775 49.369 57.7551L49.3695 57.7545Z" fill="#A81C29"/>
<path d="M93.1412 21.2354L87.7907 17.865C70.958 8.06979 51.9221 5.5638 34.7544 16.2644C27.7667 20.62 20.5741 29.8795 19.0206 38.0799C18.9605 38.3965 19.0454 38.7259 18.9357 39.035C18.8439 39.2945 18.8144 39.1564 18.7342 39.0038C18.301 38.1828 17.98 36.0142 17.8529 35.0296C15.4835 16.6434 29.4726 2.98962 46.7853 0.451268C63.5002 -1.99926 83.2378 5.67243 92.5429 20.0439C92.7809 20.4114 93.1019 20.7818 93.1412 21.2354Z" fill="#4164E2"/>
<path d="M27.5389 5.98267L25.7238 7.11172C14.7982 15.3069 12.5887 31.0334 14.0273 43.8274C15.2233 54.4621 18.9493 64.5058 24.4886 73.5763C24.7646 74.0282 25.5379 74.9903 25.6903 75.3791C25.7544 75.5432 25.6701 75.5687 25.5205 75.5502C24.6104 75.4358 22.5465 74.0143 21.7281 73.4492C15.9336 69.4461 10.3256 63.5772 6.9605 57.3697C-2.7997 39.3643 4.28152 20.6147 20.3422 9.58536C22.5158 8.09286 24.9552 6.57377 27.5389 5.98267Z" fill="#EC3E4F"/>
<path d="M84.3408 25.6614C93.0945 24.8537 93.08 38.6612 84.3091 37.8754C77.0627 37.2259 77.199 26.3207 84.3408 25.6614Z" fill="#0B0D50"/>
<path d="M65.9703 58.475C71.4882 57.5424 71.6141 65.6469 66.6425 65.5001C62.4348 65.3759 62.2166 59.1095 65.9703 58.475Z" fill="#A81C29"/>
</g>
<path d="M211.936 67.4193H209.209L208.766 68.7111H206.912L209.556 61.4146H211.613L214.245 68.7111H212.367L211.936 67.4193ZM211.469 66.0557L210.572 63.3763L209.675 66.0557H211.469Z" fill="#0B0D50"/>
<path d="M218.253 65.0688C218.253 64.3512 218.408 63.7112 218.719 63.143C219.03 62.5779 219.464 62.1383 220.023 61.8273C220.579 61.5103 221.21 61.3488 221.913 61.3488C222.78 61.3488 223.522 61.5821 224.138 62.0426C224.76 62.4971 225.173 63.1191 225.382 63.9086H223.42C223.277 63.6066 223.067 63.3763 222.798 63.2148C222.535 63.0563 222.236 62.9756 221.901 62.9756C221.351 62.9756 220.902 63.167 220.562 63.5497C220.227 63.9265 220.059 64.4319 220.059 65.0688C220.059 65.7088 220.227 66.2172 220.562 66.5999C220.902 66.9827 221.351 67.1741 221.901 67.1741C222.236 67.1741 222.535 67.0963 222.798 66.9348C223.067 66.7764 223.277 66.5401 223.42 66.2291H225.382C225.173 67.0275 224.76 67.6525 224.138 68.1071C223.522 68.5556 222.78 68.7769 221.913 68.7769C221.21 68.7769 220.579 68.6214 220.023 68.3104C219.464 67.9934 219.03 67.5539 218.719 66.9947C218.408 66.4295 218.253 65.7865 218.253 65.0688Z" fill="#0B0D50"/>
<path d="M234.414 67.4193H231.687L231.245 68.7111H229.391L232.034 61.4146H234.092L236.723 68.7111H234.845L234.414 67.4193ZM233.948 66.0557L233.051 63.3763L232.154 66.0557H233.948Z" fill="#0B0D50"/>
<path d="M243.459 61.4146C244.23 61.4146 244.906 61.5671 245.48 61.8691C246.054 62.1741 246.497 62.6047 246.808 63.1609C247.125 63.7112 247.286 64.3451 247.286 65.0628C247.286 65.7745 247.125 66.4085 246.808 66.9647C246.497 67.5239 246.048 67.9545 245.468 68.2565C244.894 68.5616 244.224 68.7111 243.459 68.7111H240.731V61.4146H243.459ZM243.351 67.168C244.021 67.168 244.541 66.9856 244.918 66.6178C245.292 66.253 245.48 65.7327 245.48 65.0628C245.48 64.393 245.292 63.8726 244.918 63.4959C244.541 63.1221 244.021 62.9337 243.351 62.9337H242.502V67.168H243.351Z" fill="#0B0D50"/>
<path d="M253.065 62.838V64.3093H255.445V65.6849H253.065V67.2877H255.768V68.7111H251.294V61.4146H255.768V62.838H253.065Z" fill="#0B0D50"/>
<path d="M268.042 61.4146V68.7111H266.26V64.3332L264.633 68.7111H263.197L261.547 64.3213V68.7111H259.776V61.4146H261.87L263.927 66.4624L265.949 61.4146H268.042Z" fill="#0B0D50"/>
<path d="M278.88 61.4146L276.356 66.2949V68.7111H274.574V66.2949L272.05 61.4146H274.072L275.483 64.4648L276.883 61.4146H278.88Z" fill="#0B0D50"/>
<path d="M130.67 75.827V76.4812H128.973V82.054H128.162V76.4812H126.454V75.827H130.67Z" fill="#0B0D50"/>
<path d="M139.27 75.827V82.054H138.458V79.2312H135.284V82.054H134.472V75.827H135.284V78.5528H138.458V75.827H139.27Z" fill="#0B0D50"/>
<path d="M144.262 75.827V82.054H143.451V75.827H144.262Z" fill="#0B0D50"/>
<path d="M153.338 82.0543H152.527L149.256 77.0872V82.0543H148.444V75.8152H149.256L152.527 80.7701V75.8152H153.338V82.0543Z" fill="#0B0D50"/>
<path d="M160.9 82.054L158.332 79.207V82.054H157.52V75.827H158.332V78.7103L160.912 75.827H161.93L159.107 78.9405L161.966 82.054H160.9Z" fill="#0B0D50"/>
<path d="M167.98 79.8112C167.825 79.8112 167.692 79.7597 167.58 79.6537C167.474 79.5507 167.422 79.4205 167.422 79.266C167.422 79.1055 167.474 78.9722 167.58 78.8662C167.692 78.7633 167.825 78.7087 167.98 78.7087C168.131 78.7087 168.261 78.7633 168.367 78.8662C168.47 78.9722 168.525 79.1055 168.525 79.266C168.525 79.4205 168.47 79.5507 168.367 79.6537C168.261 79.7597 168.131 79.8112 167.98 79.8112Z" fill="#0B0D50"/>
<path d="M176.326 81.388H178.507V82.0543H175.514V75.8273H176.326V81.388Z" fill="#0B0D50"/>
<path d="M182.98 76.4813V78.565H185.245V79.2434H182.98V81.3877H185.524V82.0541H182.168V75.8149H185.524V76.4813H182.98Z" fill="#0B0D50"/>
<path d="M193.232 80.6732H190.518L190.01 82.0543H189.149L191.403 75.8636H192.348L194.589 82.0543H193.729L193.232 80.6732ZM193.002 80.0069L191.875 76.8571L190.749 80.0069H193.002Z" fill="#0B0D50"/>
<path d="M201.648 82.054L200.158 79.5099H199.177V82.054H198.365V75.827H200.376C200.843 75.827 201.239 75.9087 201.564 76.0693C201.894 76.2237 202.136 76.4388 202.29 76.7113C202.451 76.987 202.533 77.3019 202.533 77.6563C202.533 78.0864 202.406 78.465 202.157 78.7951C201.915 79.1192 201.545 79.3372 201.055 79.4493L202.618 82.054H201.648ZM199.177 78.8557H200.376C200.812 78.8557 201.14 78.7466 201.358 78.5286C201.582 78.3105 201.697 78.0197 201.697 77.6563C201.697 77.2868 201.588 76.9991 201.37 76.7961C201.152 76.5963 200.818 76.4933 200.376 76.4933H199.177V78.8557Z" fill="#0B0D50"/>
<path d="M211.488 82.0544H210.676L207.405 77.0873V82.0544H206.594V75.8152H207.405L210.676 80.7702V75.8152H211.488V82.0544Z" fill="#0B0D50"/>
<path d="M218.912 79.4418C218.757 79.4418 218.624 79.3903 218.512 79.2843C218.406 79.1813 218.354 79.0511 218.354 78.8966C218.354 78.7361 218.406 78.6029 218.512 78.4968C218.624 78.3939 218.757 78.3394 218.912 78.3394C219.063 78.3394 219.193 78.3939 219.299 78.4968C219.402 78.6029 219.457 78.7361 219.457 78.8966C219.457 79.0511 219.402 79.1813 219.299 79.2843C219.193 79.3903 219.063 79.4418 218.912 79.4418Z" fill="#0B0D50"/>
<path d="M229.201 80.6732H226.488L225.979 82.0543H225.119L227.372 75.8636H228.317L230.558 82.0543H229.698L229.201 80.6732ZM228.971 80.0069L227.844 76.8571L226.718 80.0069H228.971Z" fill="#0B0D50"/>
<path d="M234.034 78.9286C234.034 78.3229 234.17 77.7777 234.446 77.2931C234.719 76.8085 235.091 76.4299 235.561 76.1543C236.036 75.8818 236.566 75.7424 237.148 75.7424C237.826 75.7424 238.414 75.909 238.916 76.2391C239.425 76.5632 239.795 77.0266 240.031 77.6323H239.05C238.88 77.2538 238.632 76.963 238.311 76.7601C237.987 76.5602 237.599 76.4572 237.148 76.4572C236.712 76.4572 236.318 76.5602 235.973 76.7601C235.624 76.963 235.349 77.2507 235.149 77.6202C234.955 77.9928 234.858 78.4289 234.858 78.9286C234.858 79.4314 234.955 79.8675 235.149 80.237C235.349 80.6095 235.624 80.8973 235.973 81.0972C236.318 81.3001 236.712 81.4 237.148 81.4C237.599 81.4 237.987 81.3031 238.311 81.1093C238.632 80.9094 238.88 80.6186 239.05 80.237H240.031C239.795 80.8367 239.425 81.2971 238.916 81.6181C238.414 81.9422 237.826 82.1027 237.148 82.1027C236.566 82.1027 236.036 81.9694 235.561 81.7029C235.091 81.4303 234.719 81.0548 234.446 80.5762C234.17 80.0916 234.034 79.5434 234.034 78.9286Z" fill="#0B0D50"/>
<path d="M248.831 75.827V82.054H248.019V79.2312H244.845V82.054H244.034V75.827H244.845V78.5528H248.019V75.827H248.831Z" fill="#0B0D50"/>
<path d="M253.821 75.827V82.054H253.009V75.827H253.821Z" fill="#0B0D50"/>
<path d="M258.815 76.4815V78.5652H261.08V79.2437H258.815V81.388H261.359V82.0543H258.003V75.8152H261.359V76.4815H258.815Z" fill="#0B0D50"/>
<path d="M270.529 75.8273L268.179 82.0543H267.234L264.884 75.8273H265.756L267.707 81.1942L269.669 75.8273H270.529Z" fill="#0B0D50"/>
<path d="M275.031 76.4815V78.5652H277.296V79.2437H275.031V81.388H277.575V82.0543H274.219V75.8152H277.575V76.4815H275.031Z" fill="#0B0D50"/>
<line x1="202.483" y1="68.5456" x2="126.456" y2="68.5456" stroke="#0B0D50" stroke-width="0.369067"/>
<defs>
<clipPath id="clip0_1503_14106">
<rect width="101.462" height="100" fill="white"/>
</clipPath>
</defs>
</svg>