<svg width="54" height="45" viewBox="0 0 54 45" fill="none" xmlns="http://www.w3.org/2000/svg">
<path opacity="0.934" fill-rule="evenodd" clip-rule="evenodd" d="M53.9473 12.2669C53.9473 12.8646 53.9473 13.4622 53.9473 14.0599C53.6849 14.939 53.1575 15.6245 52.3652 16.1165C49.377 17.3998 46.3886 18.6829 43.4004 19.9661C45.0207 26.8969 42.5598 31.5903 36.0176 34.0462C29.7688 36.1421 23.5461 36.0718 17.3496 33.8353C15.156 32.9943 13.3103 31.6759 11.8125 29.8802C11.2632 29.0774 10.8766 28.1985 10.6523 27.2435C10.6347 24.817 10.582 22.3912 10.4941 19.9661C9.09773 19.3821 7.70907 18.7845 6.32812 18.1732C6.25781 22.0052 6.25781 25.8373 6.32812 29.6693C8.05736 30.6577 8.4265 32.0288 7.43555 33.7826C7.77981 34.2601 8.00832 34.7875 8.12109 35.3646C8.41148 37.9255 8.58726 40.4918 8.64844 43.0638C8.37413 43.7549 7.86436 44.1241 7.11914 44.1712C5.95898 44.2416 4.79883 44.2416 3.63867 44.1712C2.52458 44.0008 1.99724 43.3505 2.05664 42.2201C2.24048 40.0396 2.43385 37.8599 2.63672 35.681C2.67641 34.9626 2.94008 34.3474 3.42773 33.8353C2.36555 32.0899 2.71712 30.7012 4.48242 29.6693C4.60546 25.5916 4.62304 21.5135 4.53516 17.4349C3.40806 16.9656 2.30064 16.4558 1.21289 15.9056C0.617951 15.3988 0.196076 14.7835 -0.0527344 14.0599C-0.0527344 13.4622 -0.0527344 12.8646 -0.0527344 12.2669C0.372469 11.0857 1.18106 10.2594 2.37305 9.78837C9.522 6.75877 16.6587 3.70024 23.7832 0.612603C25.3991 -0.0236774 27.0515 -0.164307 28.7402 0.190733C29.2037 0.310033 29.6607 0.450673 30.1113 0.612603C37.6118 3.81795 45.1001 7.05227 52.5762 10.3158C53.2327 10.842 53.6898 11.4925 53.9473 12.2669ZM25.998 1.72002C27.1617 1.61849 28.2866 1.77669 29.373 2.19463C36.4976 5.28227 43.6342 8.34087 50.7832 11.3704C52.3083 12.0088 52.6247 13.0108 51.7324 14.3763C43.9901 17.8657 36.1854 21.2231 28.3184 24.4486C26.8513 24.7549 25.4451 24.579 24.0996 23.9212C18.791 21.636 13.4824 19.3509 8.17383 17.0658C13.1252 16.1468 18.0822 15.2503 23.0449 14.3763C24.1993 15.3354 25.5352 15.7924 27.0527 15.7474C28.5407 15.7616 29.8239 15.2694 30.9023 14.2708C31.5377 12.7795 31.0982 11.7072 29.584 11.054C27.8268 10.4248 26.069 10.4248 24.3105 11.054C23.5398 11.4383 22.9421 12.0007 22.5176 12.7415C16.754 13.7549 10.9884 14.7568 5.2207 15.7474C4.15226 15.3915 3.13273 14.9346 2.16211 14.3763C1.43815 13.4892 1.4733 12.6278 2.26758 11.7923C10.141 8.31157 18.0512 4.9542 25.998 1.72002ZM26.3145 12.2669C27.2661 12.2147 28.1801 12.3729 29.0566 12.7415C29.2493 12.8364 29.3899 12.9771 29.4785 13.1634C29.1081 13.5425 28.651 13.7885 28.1074 13.9017C26.8556 14.142 25.6602 13.9661 24.5215 13.3744C24.4664 13.3152 24.4313 13.2448 24.416 13.1634C24.5776 12.9401 24.7885 12.7643 25.0488 12.6361C25.4862 12.5191 25.9081 12.396 26.3145 12.2669ZM41.3965 27.2435C41.0768 28.2856 40.5143 29.1821 39.709 29.9329C37.35 31.7796 34.6781 32.9398 31.6934 33.4134C26.8578 34.2798 22.1469 33.8228 17.5605 32.0423C15.6153 31.2564 14.0509 30.0084 12.8672 28.2982C12.7117 27.9548 12.5887 27.6032 12.498 27.2435C14.8158 29.3518 17.5229 30.7405 20.6191 31.4095C23.9698 32.1379 27.3448 32.2786 30.7441 31.8314C31.2787 31.5168 31.4017 31.0774 31.1133 30.513C31.018 30.3864 30.8951 30.2984 30.7441 30.2494C27.6311 30.558 24.5374 30.4174 21.4629 29.8275C18.8554 29.3143 16.4998 28.2596 14.3965 26.6634C12.5911 25.1244 11.8879 23.1732 12.2871 20.8099C16.3391 22.4832 20.3822 24.1883 24.416 25.9251C26.1035 26.4174 27.791 26.4174 29.4785 25.9251C33.5124 24.1883 37.5554 22.4832 41.6074 20.8099C41.9743 23.1024 41.3064 25.0183 39.6035 26.5579C38.7616 27.2606 37.8475 27.8582 36.8613 28.3509C36.3358 28.7823 36.3006 29.2569 36.7559 29.7747C37.0918 30.0215 37.4434 30.039 37.8105 29.8275C39.1403 29.1474 40.3357 28.2861 41.3965 27.2435ZM5.2207 31.2513C5.81286 31.2631 6.16442 31.562 6.27539 32.1478C5.90045 33.0399 5.35552 33.163 4.64062 32.5169C4.47119 31.9074 4.66455 31.4855 5.2207 31.2513ZM5.00977 34.7318C5.61135 34.6196 6.05081 34.8305 6.32812 35.3646C6.61676 37.7134 6.84528 40.0688 7.01367 42.431C5.92383 42.431 4.83398 42.431 3.74414 42.431C3.95674 40.11 4.18526 37.7897 4.42969 35.4701C4.53165 35.1409 4.72501 34.8948 5.00977 34.7318Z" fill="#C23743"/>
</svg>
