<svg width="14" height="16" viewBox="0 0 14 16" fill="none" xmlns="http://www.w3.org/2000/svg">
<path d="M14 11.25C14 11.5 13.875 11.7188 13.7188 11.8438C13.5625 12.3125 13.5625 13.6875 13.7188 14.1875C13.875 14.3125 14 14.5312 14 14.75V15.25C14 15.6875 13.6562 16 13.25 16H3C1.34375 16 0 14.6562 0 13V3C0 1.34375 1.34375 0 3 0H13.25C13.6562 0 14 0.34375 14 0.75V11.25ZM4 4.1875V4.8125C4 4.9375 4.0625 5 4.1875 5H10.8125C10.9062 5 11 4.9375 11 4.8125V4.1875C11 4.09375 10.9062 4 10.8125 4H4.1875C4.0625 4 4 4.09375 4 4.1875ZM4 6.1875V6.8125C4 6.9375 4.0625 7 4.1875 7H10.8125C10.9062 7 11 6.9375 11 6.8125V6.1875C11 6.09375 10.9062 6 10.8125 6H4.1875C4.0625 6 4 6.09375 4 6.1875ZM11.9062 14C11.8438 13.4688 11.8438 12.5625 11.9062 12H3C2.4375 12 2 12.4688 2 13C2 13.5625 2.4375 14 3 14H11.9062Z" fill="#C23743"/>
</svg>
