<svg width="16" height="16" viewBox="0 0 16 16" fill="none" xmlns="http://www.w3.org/2000/svg">
<path d="M7.75 0C12.0312 0 15.5 3.46875 15.5 7.75C15.5 12.0312 12.0312 15.5 7.75 15.5C3.46875 15.5 0 12.0312 0 7.75C0 3.46875 3.46875 0 7.75 0ZM7.75 14C11.1875 14 14 11.2188 14 7.75C14 4.3125 11.1875 1.5 7.75 1.5C4.28125 1.5 1.5 4.3125 1.5 7.75C1.5 11.2188 4.28125 14 7.75 14ZM9.65625 10.75L7 8.8125C6.90625 8.75 6.875 8.625 6.875 8.53125V3.375C6.875 3.1875 7.03125 3 7.25 3H8.25C8.4375 3 8.625 3.1875 8.625 3.375V7.8125L10.6875 9.34375C10.875 9.46875 10.9062 9.6875 10.7812 9.875L10.1875 10.6562C10.0625 10.8438 9.84375 10.875 9.65625 10.75Z" fill="#C23743"/>
</svg>
