<svg width="14" height="11" viewBox="0 0 14 11" fill="none" xmlns="http://www.w3.org/2000/svg">
<path d="M13.8125 3.92188C13.7188 3.78646 13.6016 3.68229 13.4609 3.60938C13.3203 3.53646 13.1667 3.5 13 3.5H12V2.5C12 2.21875 11.9036 1.98177 11.7109 1.78906C11.5182 1.59635 11.2812 1.5 11 1.5H6.67188L4.9375 0.203125C4.85417 0.140625 4.76042 0.0911455 4.65625 0.0546875C4.55208 0.0182295 4.44271 0 4.32812 0H1C0.71875 0 0.481771 0.0963545 0.289062 0.289062C0.0963542 0.481771 0 0.71875 0 1V10C0 10.1354 0.0494792 10.2526 0.148438 10.3516C0.247396 10.4505 0.364583 10.5 0.5 10.5H11.6875C11.8021 10.5 11.901 10.4688 11.9844 10.4062C12.0677 10.3438 12.1302 10.2604 12.1719 10.1562L13.9531 4.8125C13.9635 4.77083 13.974 4.72135 13.9844 4.66406C13.9948 4.60677 14 4.55208 14 4.5C14 4.38542 13.9844 4.27865 13.9531 4.17969C13.9219 4.08073 13.875 3.98958 13.8125 3.90625V3.92188ZM4.32812 1L6.20312 2.40625C6.24479 2.4375 6.29167 2.46094 6.34375 2.47656C6.39583 2.49219 6.44792 2.5 6.5 2.5H11V3.5H2.85938C2.64062 3.5 2.44531 3.5625 2.27344 3.6875C2.10156 3.8125 1.97917 3.97396 1.90625 4.17188V4.1875L1 6.92188V1H4.32812ZM11.3281 9.5H1.1875L2.85938 4.5H13L11.3281 9.5Z" fill="white"/>
</svg>
