<svg width="19" height="12" viewBox="0 0 19 12" fill="none" xmlns="http://www.w3.org/2000/svg">
<path d="M18.418 1.32812C18.3789 1.30208 18.3333 1.28255 18.2812 1.26953C18.2292 1.25651 18.1771 1.25 18.125 1.25C18.0599 1.25 17.998 1.25977 17.9395 1.2793C17.8809 1.29883 17.8255 1.32812 17.7734 1.36719L15 3.20312V1.25C15 0.898438 14.8796 0.602214 14.6387 0.361328C14.3978 0.120442 14.1016 0 13.75 0H1.25C0.898438 0 0.602214 0.120442 0.361328 0.361328C0.120443 0.602214 0 0.898438 0 1.25V10C0 10.3516 0.120443 10.6478 0.361328 10.8887C0.602214 11.1296 0.898438 11.25 1.25 11.25H13.75C14.1016 11.25 14.3978 11.1296 14.6387 10.8887C14.8796 10.6478 15 10.3516 15 10V8.04688L17.7734 9.90234C17.8255 9.92839 17.8809 9.95117 17.9395 9.9707C17.998 9.99023 18.0599 10 18.125 10C18.2943 10 18.4408 9.93815 18.5645 9.81445C18.6882 9.69076 18.75 9.54427 18.75 9.375V1.875C18.75 1.75781 18.7207 1.65039 18.6621 1.55273C18.6035 1.45508 18.5221 1.38021 18.418 1.32812ZM13.75 10H1.25V1.25H13.75V10ZM17.5 8.20312L15 6.54297V4.70703L17.5 3.04688V8.20312Z" fill="#C23743"/>
</svg>
